<svg xmlns="http://www.w3.org/2000/svg" width="480" height="100" viewBox="0 0 480 100"><defs><filter id="graphite" x="-5%" y="-5%" width="110%" height="110%"><feTurbulence type="fractalNoise" baseFrequency=".08 .13" numOctaves="2" seed="17" result="grain"/><feDisplacementMap in="SourceGraphic" in2="grain" scale="1.4" xChannelSelector="R" yChannelSelector="G"/></filter></defs><g filter="url(#graphite)" fill="none" stroke="#333" stroke-linecap="round" stroke-linejoin="round"><g transform="translate(22 15)"><circle cx="30" cy="32" r="25" stroke-width="1.5"/><circle cx="30" cy="32" r="22" stroke-width=".7"/><path stroke-width="1.2" d="m30 5 7 27-7 27-7-27Zm-25 27 25-7 25 7-25 7Z"/><path stroke-width=".7" d="m30 7 1 23-1 2 7 0m-13 1 5 1v22M11 20l5 3m-8 8 7 1m-3 11 5-3m27-20-5 4m8 7-6 1m2 10-4-3"/></g><path stroke-width="1.2" d="m113 73 33-44 28 37 24-31 31 38m-114-1 27 1 25-2 28 3 30-2"/><path stroke-width=".7" d="m134 48 11 8 6-9 9 15m31-16 7 9 5-8m-77 17 19-7m-16 13 21-7m31 2 14-7m-11 13 18-9"/><path stroke-width="1.6" d="m270 73 35-53 34 52Zm35-53v52m-12 1 12-30 10 30m-53 0 87 1"/><path stroke-width=".8" d="m294 38 8 2m-13 4 12 2m-17 4 15 2m-19 4 17 2m-23 4 20 2m-25 4 23 2m16-30 9 19m-10-11 5 12"/><g transform="translate(383 20)"><path stroke-width="1.8" d="M9 18C7-3 48-3 47 18l5 37-3 13H8L4 55Z"/><path stroke-width="1.2" d="M7 17h42l-5 20H12Zm7 25h29v20H14Zm10-21v15h7V21"/><path stroke-width=".8" d="m9 46 6 2m-6 5 6 2m29-8 6-2m-6 8 6-2M18 9c5-5 15-5 20-1M0 28l7-2m41 0 9 3"/></g><path opacity=".4" stroke-width=".7" d="m13 88 49-2m52 1 114 1m37 0 81 2m33-1 65 1"/></g></svg>
