<svg xmlns="http://www.w3.org/2000/svg" width="600" height="900" viewBox="0 0 600 900"><defs><pattern id="h" width="7" height="7" patternUnits="userSpaceOnUse"><path d="M-2 7 7-2M0 9 9 0" stroke="#111" stroke-width="1"/></pattern><pattern id="cross" width="10" height="10" patternUnits="userSpaceOnUse"><path d="M0 0 10 10M0 10 10 0" stroke="#111" stroke-width=".8"/></pattern></defs><g fill="none" stroke="#111"><rect x="4" y="4" width="592" height="892" stroke-width="4"/><rect x="10" y="10" width="580" height="880" stroke-width="1"/><path d="M17 60V17H540M583 840v43H60" stroke-width="3"/><path d="M24 62V24H538M576 838v38H62"/></g><path d="M12 12H588V888H12ZM32 32V868H568V32Z" fill="url(#h)" fill-rule="evenodd"/><g fill="white" stroke="#111" stroke-width="2"><g transform="translate(28 28)"><path d="M0-25 7-7 25 0 7 7 0 25-7 7-25 0-7-7Z" fill="url(#cross)"/><circle r="9"/><path d="M-6 0H6M0-6V6"/><circle r="3" fill="#111"/></g><g transform="translate(572 28)"><path d="M0-25 7-7 25 0 7 7 0 25-7 7-25 0-7-7Z" fill="url(#cross)"/><circle r="9"/><path d="M-6 0H6M0-6V6"/><circle r="3" fill="#111"/></g><g transform="translate(28 872)"><path d="M0-25 7-7 25 0 7 7 0 25-7 7-25 0-7-7Z" fill="url(#cross)"/><circle r="9"/><path d="M-6 0H6M0-6V6"/><circle r="3" fill="#111"/></g><g transform="translate(572 872)"><path d="M0-25 7-7 25 0 7 7 0 25-7 7-25 0-7-7Z" fill="url(#cross)"/><circle r="9"/><path d="M-6 0H6M0-6V6"/><circle r="3" fill="#111"/></g></g></svg>